<svg xmlns="http://www.w3.org/2000/svg" style="display: none">
        <symbol id="heard" viewBox="0 0 17 15">
                <path d="M8.58499 12.7111L8.49998 12.793L8.40649 12.7111C4.36899 9.18802 1.7 6.85831 1.7 4.49592C1.7 2.86103 2.975 1.63488 4.67499 1.63488C5.98399 1.63488 7.25899 2.45232 7.70948 3.56403H9.29048C9.74098 2.45232 11.016 1.63488 12.3249 1.63488C14.025 1.63488 15.3 2.86103 15.3 4.49592C15.3 6.85831 12.6309 9.18802 8.58499 12.7111ZM12.3249 0C10.8459 0 9.42649 0.662125 8.49998 1.70027C7.57348 0.662125 6.15398 0 4.67499 0C2.057 0 0 1.97002 0 4.49592C0 7.57767 2.88999 10.1035 7.26749 13.921L8.49998 15L9.73248 13.921C14.1099 10.1035 17 7.57767 17 4.49592C17 1.97002 14.943 0 12.3249 0Z"></path>
        </symbol>

        <symbol id="eye" viewBox="0 0 19 19">
                <path d="M9.50008 7.125C10.13 7.125 10.7341 7.37522 11.1795 7.82062C11.6249 8.26602 11.8751 8.87011 11.8751 9.5C11.8751 10.1299 11.6249 10.734 11.1795 11.1794C10.7341 11.6248 10.13 11.875 9.50008 11.875C8.87019 11.875 8.2661 11.6248 7.8207 11.1794C7.3753 10.734 7.12508 10.1299 7.12508 9.5C7.12508 8.87011 7.3753 8.26602 7.8207 7.82062C8.2661 7.37522 8.87019 7.125 9.50008 7.125ZM9.50008 3.5625C13.4584 3.5625 16.8388 6.02458 18.2084 9.5C16.8388 12.9754 13.4584 15.4375 9.50008 15.4375C5.54175 15.4375 2.16133 12.9754 0.791748 9.5C2.16133 6.02458 5.54175 3.5625 9.50008 3.5625ZM2.51758 9.5C3.15745 10.8065 4.15103 11.9073 5.38538 12.6772C6.61972 13.4471 8.04531 13.8552 9.50008 13.8552C10.9549 13.8552 12.3804 13.4471 13.6148 12.6772C14.8491 11.9073 15.8427 10.8065 16.4826 9.5C15.8427 8.19351 14.8491 7.09274 13.6148 6.32284C12.3804 5.55294 10.9549 5.14479 9.50008 5.14479C8.04531 5.14479 6.61972 5.55294 5.38538 6.32284C4.15103 7.09274 3.15745 8.19351 2.51758 9.5Z"></path>
        </symbol>
</svg>
